<svg width="32" height="32" viewBox="0 0 32 32" fill="none" xmlns="http://www.w3.org/2000/svg">
<path d="M23 20.4995C23 20.994 23.1466 21.4773 23.4213 21.8884C23.696 22.2996 24.0864 22.62 24.5433 22.8092C25.0001 22.9984 25.5027 23.048 25.9877 22.9515C26.4727 22.855 26.9181 22.6169 27.2677 22.2673C27.6174 21.9177 27.8555 21.4722 27.9519 20.9872C28.0484 20.5023 27.9989 19.9996 27.8097 19.5428C27.6205 19.086 27.3 18.6955 26.8889 18.4208C26.4778 18.1461 25.9944 17.9995 25.5 17.9995C24.8372 18.0003 24.2017 18.264 23.7331 18.7326C23.2644 19.2013 23.0008 19.8367 23 20.4995ZM27 20.4995C27 20.7962 26.912 21.0862 26.7472 21.3329C26.5824 21.5795 26.3481 21.7718 26.074 21.8853C25.7999 21.9989 25.4983 22.0286 25.2073 21.9707C24.9164 21.9128 24.6491 21.77 24.4393 21.5602C24.2295 21.3504 24.0867 21.0831 24.0288 20.7922C23.9709 20.5012 24.0006 20.1996 24.1141 19.9255C24.2277 19.6514 24.4199 19.4171 24.6666 19.2523C24.9133 19.0875 25.2033 18.9995 25.5 18.9995C25.8978 18.9995 26.2793 19.1576 26.5606 19.4389C26.8419 19.7202 27 20.1017 27 20.4995Z" fill="#5188CD"/>
<path d="M27.24 27.6545C28.76 25.6945 31 22.4695 31 20.4995C30.9972 19.2154 30.546 17.9726 29.7244 16.9858C28.9028 15.9989 27.7623 15.33 26.5 15.0945V9.49951L28.375 9.98451C28.4159 9.99442 28.4579 9.99945 28.5 9.99951C28.6326 9.99951 28.7598 9.94683 28.8535 9.85306C28.9473 9.75929 29 9.63211 29 9.49951V6.49951C29.0002 6.38851 28.9634 6.2806 28.8955 6.19279C28.8276 6.10498 28.7325 6.04226 28.625 6.01451L15.125 2.51451C15.0429 2.49451 14.9571 2.49451 14.875 2.51451L1.37499 6.01451C1.26751 6.04226 1.17233 6.10498 1.10443 6.19279C1.03654 6.2806 0.999793 6.38851 0.999987 6.49951V9.49951C0.999599 9.57596 1.01702 9.65146 1.05086 9.72002C1.08471 9.78858 1.13405 9.84832 1.19499 9.89451C1.25534 9.94076 1.32532 9.97287 1.39974 9.98845C1.47417 10.004 1.55115 10.0027 1.62499 9.98451L3.49999 9.49951V27.4995C3.49999 27.6321 3.55267 27.7593 3.64643 27.8531C3.7402 27.9468 3.86738 27.9995 3.99999 27.9995H22.59C21.95 28.2795 21.5 28.6895 21.5 29.2495C21.5 30.4495 23.575 30.9995 25.5 30.9995C27.425 30.9995 29.5 30.4495 29.5 29.2495C29.5 28.3845 28.445 27.8845 27.24 27.6545ZM30 20.4995C30 22.4345 27.035 26.3845 25.5 28.2295C23.965 26.3845 21 22.4345 21 20.4995C21 19.306 21.4741 18.1614 22.318 17.3175C23.1619 16.4736 24.3065 15.9995 25.5 15.9995C26.6935 15.9995 27.838 16.4736 28.682 17.3175C29.5259 18.1614 30 19.306 30 20.4995ZM18.5 15.9995V13.9995C18.5008 13.6042 18.6185 13.2181 18.8382 12.8895C19.0579 12.5609 19.3699 12.3047 19.7349 12.1529C20.0998 12.0011 20.5015 11.9607 20.8894 12.0366C21.2773 12.1125 21.6341 12.3014 21.915 12.5795C22.2891 12.9575 22.4993 13.4677 22.5 13.9995V15.8945L22.35 15.9995H18.5ZM1.99999 8.85451V6.88451L15 3.51451L28 6.88451V8.85451L15.125 5.51451C15.0429 5.49451 14.9571 5.49451 14.875 5.51451L1.99999 8.85451ZM14.5 26.9995H12V19.9995H14.5V26.9995ZM18 26.9995H15.5V19.9995H18V26.9995ZM19 26.9995V19.4995C19 19.3669 18.9473 19.2397 18.8535 19.146C18.7598 19.0522 18.6326 18.9995 18.5 18.9995H11.5C11.3674 18.9995 11.2402 19.0522 11.1464 19.146C11.0527 19.2397 11 19.3669 11 19.4995V26.9995H4.49999V9.23951L15 6.51451L25.5 9.23951V14.9995C24.8156 15.0015 24.1374 15.1303 23.5 15.3795V13.9995C23.5 13.2039 23.1839 12.4408 22.6213 11.8782C22.0587 11.3156 21.2956 10.9995 20.5 10.9995C19.7043 10.9995 18.9413 11.3156 18.3787 11.8782C17.8161 12.4408 17.5 13.2039 17.5 13.9995V15.9995H17V16.9995H21.26C20.4447 17.9835 19.999 19.2216 20 20.4995C20 22.2595 21.795 25.0295 23.26 26.9995H19ZM25.5 29.9995C23.58 29.9995 22.56 29.4495 22.5 29.2595C22.545 29.1045 23.185 28.7095 24.48 28.5595C24.835 28.9995 25.08 29.2795 25.125 29.3295C25.1719 29.3827 25.2296 29.4253 25.2943 29.4545C25.3589 29.4837 25.429 29.4988 25.5 29.4988C25.5709 29.4988 25.641 29.4837 25.7057 29.4545C25.7704 29.4253 25.8281 29.3827 25.875 29.3295C25.92 29.2795 26.165 28.9995 26.52 28.5595C27.815 28.7095 28.455 29.1045 28.5 29.2395C28.44 29.4495 27.42 29.9995 25.5 29.9995Z" fill="#5188CD" stroke="#5188CD" stroke-width="0.742833"/>
<path d="M13.3714 23.3709H13.6286V23.6281H13.3714V23.3709Z" fill="#5188CD" stroke="#5188CD" stroke-width="0.742833"/>
<path d="M16.3714 23.3709H16.6285V23.6281H16.3714V23.3709Z" fill="#5188CD" stroke="#5188CD" stroke-width="0.742833"/>
<path d="M12.5 15.9995V13.9995C12.5 13.2039 12.1839 12.4408 11.6213 11.8782C11.0587 11.3156 10.2956 10.9995 9.5 10.9995C8.70435 10.9995 7.94129 11.3156 7.37868 11.8782C6.81607 12.4408 6.5 13.2039 6.5 13.9995V15.9995H6V16.9995H13V15.9995H12.5ZM11.5 15.9995H7.5V13.9995C7.5 13.4691 7.71071 12.9604 8.08579 12.5853C8.46086 12.2102 8.96957 11.9995 9.5 11.9995C10.0304 11.9995 10.5391 12.2102 10.9142 12.5853C11.2893 12.9604 11.5 13.4691 11.5 13.9995V15.9995Z" fill="#5188CD" stroke="#5188CD" stroke-width="0.742833"/>
<rect x="0.371417" y="0.371417" width="31.2572" height="31.2572" stroke="white" stroke-width="0.742833"/>
</svg>
