<svg width="32" height="32" viewBox="0 0 32 32" fill="none" xmlns="http://www.w3.org/2000/svg">
<g clip-path="url(#clip0)">
<path d="M29.1875 3.81152H2.81251C1.26364 3.81152 1.33514e-05 5.07377 1.33514e-05 6.62402V25.374C1.33514e-05 26.919 1.25801 28.1865 2.81251 28.1865H29.1875C30.7325 28.1865 32 26.9285 32 25.374V6.62402C32 5.07902 30.742 3.81152 29.1875 3.81152ZM28.7991 5.68652L16.0596 18.4261L3.20995 5.68652H28.7991ZM1.87501 24.9858V7.00334L10.905 15.9558L1.87501 24.9858ZM3.20083 26.3115L12.2365 17.2759L15.4025 20.4148C15.769 20.7782 16.3604 20.777 16.7254 20.4119L19.8125 17.3248L28.7992 26.3115H3.20083ZM30.125 24.9857L21.1383 15.999L30.125 7.01227V24.9857Z" fill="#5188CD"/>
</g>
<defs>
<clipPath id="clip0">
<rect width="32" height="32" fill="white"/>
</clipPath>
</defs>
</svg>
