<svg width="32" height="32" viewBox="0 0 32 32" fill="none" xmlns="http://www.w3.org/2000/svg">
<g clip-path="url(#clip0)">
<path d="M22.9987 32C21.9658 32 20.9416 31.8174 19.94 31.4535C15.5278 29.8507 11.4324 27.2402 8.09626 23.9041C4.76015 20.5681 2.14963 16.4726 0.546887 12.0604C0.0318457 10.6424 -0.120148 9.17875 0.0952806 7.70981C0.297085 6.33387 0.830063 4.99811 1.63665 3.8469C2.44681 2.69064 3.52689 1.72893 4.76009 1.06577C6.07516 0.35861 7.51054 0 9.02648 0C9.49796 0 9.90544 0.329424 10.0042 0.790405L11.5738 8.11504C11.6449 8.44672 11.5429 8.79183 11.3031 9.03169L8.62118 11.7136C11.1512 16.7438 15.2565 20.8491 20.2867 23.3791L22.9686 20.6972C23.2085 20.4573 23.5536 20.3555 23.8852 20.4265L31.2099 21.996C31.6709 22.0948 32.0003 22.5023 32.0003 22.9738C32.0003 24.4897 31.6417 25.9252 30.9345 27.2403C30.2713 28.4735 29.3096 29.5535 28.1533 30.3637C27.0022 31.1703 25.6664 31.7033 24.2904 31.9051C23.8592 31.9684 23.4281 31.9999 22.9987 32ZM8.22751 2.04367C6.2279 2.26441 4.4531 3.31249 3.27453 4.99461C1.9492 6.88609 1.64015 9.21256 2.42662 11.3776C5.508 19.8601 12.1403 26.4924 20.6228 29.5738C22.7878 30.3603 25.1143 30.0513 27.0058 28.7259C28.6879 27.5473 29.736 25.7725 29.9567 23.7729L23.9982 22.4961L21.1973 25.297C20.8992 25.595 20.4464 25.6742 20.065 25.495C14.1159 22.7001 9.30034 17.8845 6.50546 11.9354C6.32628 11.554 6.4054 11.1011 6.70345 10.8031L9.50433 8.00223L8.22751 2.04367Z" fill="#5188CD"/>
</g>
<defs>
<clipPath id="clip0">
<rect width="32" height="32" fill="white"/>
</clipPath>
</defs>
</svg>
