<svg width="32" height="32" viewBox="0 0 32 32" fill="none" xmlns="http://www.w3.org/2000/svg">
<path fill-rule="evenodd" clip-rule="evenodd" d="M25.9204 6.06909C23.2883 3.44648 19.7878 2.00154 16.0586 2C8.37408 2 2.12003 8.22395 2.11694 15.8737C2.11591 18.3191 2.7578 20.7062 3.97787 22.8103L2 30L9.39066 28.0706C11.4271 29.1761 13.7197 29.7587 16.0529 29.7594H16.0587C23.7423 29.7594 29.9971 23.5349 30 15.8848C30.0015 12.1773 28.5527 8.69153 25.9204 6.06909ZM16.0586 27.4162H16.0537C13.9746 27.4153 11.9354 26.8592 10.156 25.8087L9.73307 25.5587L5.34734 26.7037L6.51796 22.4482L6.24235 22.0119C5.08238 20.1757 4.46985 18.0535 4.47088 15.8746C4.47329 9.51628 9.6716 4.34336 16.0632 4.34336C19.1583 4.34438 22.0677 5.54546 24.2554 7.72527C26.4432 9.90508 27.6473 12.8025 27.6462 15.884C27.6435 22.2427 22.4455 27.4162 16.0586 27.4162V27.4162ZM22.4146 18.7792C22.0664 18.6055 20.3536 17.7671 20.0342 17.6512C19.7152 17.5355 19.4827 17.4779 19.2507 17.8249C19.0183 18.1718 18.3508 18.9528 18.1475 19.184C17.9442 19.4154 17.7412 19.4445 17.3928 19.2708C17.0444 19.0974 15.922 18.7311 14.5914 17.55C13.5559 16.6308 12.8568 15.4955 12.6535 15.1486C12.4505 14.8013 12.6518 14.6318 12.8063 14.4411C13.1834 13.975 13.5611 13.4864 13.6771 13.2552C13.7934 13.0238 13.7352 12.8213 13.6479 12.6478C13.5611 12.4744 12.8644 10.7679 12.5742 10.0736C12.2912 9.39785 12.0042 9.48911 11.7903 9.47852C11.5873 9.46843 11.355 9.46638 11.1226 9.46638C10.8905 9.46638 10.513 9.55303 10.1936 9.90029C9.8744 10.2474 8.97459 11.086 8.97459 12.7924C8.97459 14.4988 10.2228 16.1473 10.3969 16.3787C10.5711 16.6101 12.8534 20.1118 16.3477 21.6133C17.1789 21.9708 17.8276 22.184 18.3337 22.3437C19.1682 22.6076 19.9274 22.5704 20.5277 22.4812C21.1971 22.3815 22.5886 21.6424 22.8791 20.8327C23.1693 20.0228 23.1693 19.3288 23.0821 19.184C22.9952 19.0394 22.7629 18.9528 22.4146 18.7792V18.7792Z" fill="#5188CD"/>
</svg>
