<?xml version="1.0" standalone="no"?>
<!DOCTYPE svg PUBLIC "-//W3C//DTD SVG 20010904//EN"
 "http://www.w3.org/TR/2001/REC-SVG-20010904/DTD/svg10.dtd">
<svg version="1.0" xmlns="http://www.w3.org/2000/svg"
 width="70.000000pt" height="70.000000pt" viewBox="0 0 70.000000 70.000000"
 preserveAspectRatio="xMidYMid meet">
<metadata>
Created by potrace 1.11, written by Peter Selinger 2001-2013
</metadata>
<g transform="translate(0.000000,70.000000) scale(0.100000,-0.100000)"
fill="#000000" stroke="none">
<path d="M273 690 c-98 -20 -189 -94 -239 -196 -25 -51 -29 -70 -29 -144 0
-76 4 -93 33 -152 38 -77 92 -130 171 -167 47 -22 70 -26 141 -26 71 0 94 4
141 26 79 37 133 90 171 167 30 60 33 75 33 152 -1 66 -6 96 -23 133 -46 102
-124 170 -231 201 -59 17 -102 19 -168 6z m137 -189 c44 -26 45 -29 48 -82 2
-45 -1 -58 -17 -73 -25 -22 -29 -15 -33 59 -3 46 -6 51 -43 72 -22 12 -44 25
-50 27 -13 6 15 26 35 25 8 0 35 -13 60 -28z m-59 -28 c38 -20 49 -32 49 -50
l0 -24 -50 27 -51 28 -54 -27 -55 -27 0 23 c0 16 13 29 48 49 26 15 51 27 56
27 4 1 30 -11 57 -26z m143 -19 c12 -5 16 -21 16 -69 l0 -64 -54 -30 c-31 -18
-61 -29 -70 -25 -24 9 -19 22 17 40 58 30 67 43 67 101 0 29 2 53 4 53 2 0 11
-3 20 -6z m-174 -24 c17 -11 18 -10 -42 -44 l-48 -28 0 -59 c0 -57 -1 -59 -20
-49 -17 9 -20 21 -20 70 l0 60 48 30 c51 32 60 34 82 20z m10 -206 c28 -15 50
-30 50 -35 0 -21 -38 -16 -86 12 l-54 30 0 59 c0 46 4 61 18 69 15 9 17 4 20
-49 l3 -59 49 -27z m21 49 l50 -28 49 28 c59 32 60 32 60 8 0 -13 -18 -30 -54
-51 l-55 -31 -55 32 c-37 20 -56 37 -56 50 0 25 3 24 61 -8z"/>
</g>
</svg>
